<svg xmlns="http://www.w3.org/2000/svg" viewBox="0 0 16.87 10.34"><defs><style>.cls-1{fill:none;stroke:#000;stroke-miterlimit:10;stroke-width:0.48px;}</style></defs><title>digitate-stromatolites</title><g id="Layer_2" data-name="Layer 2"><g id="Layer_1-2" data-name="Layer 1"><path class="cls-1" d="M.24,7.11S.29,3.46,2.57,3.46,4.8,7,4.8,7"/><path class="cls-1" d="M.24,3.89S.29.24,2.57.24,4.8,3.76,4.8,3.76"/><path class="cls-1" d="M.29,10.34S.34,6.68,2.62,6.68s2.23,3.53,2.23,3.53"/><path class="cls-1" d="M6.24,7.11s.05-3.65,2.33-3.65S10.8,7,10.8,7"/><path class="cls-1" d="M6.24,3.89S6.29.24,8.57.24,10.8,3.76,10.8,3.76"/><path class="cls-1" d="M6.29,10.34s.05-3.65,2.33-3.65,2.23,3.53,2.23,3.53"/><path class="cls-1" d="M12,7.11s.05-3.65,2.33-3.65S16.58,7,16.58,7"/><path class="cls-1" d="M12,3.89S12.07.24,14.35.24s2.23,3.53,2.23,3.53"/><path class="cls-1" d="M12.07,10.34s.05-3.65,2.33-3.65,2.23,3.53,2.23,3.53"/></g></g></svg>