<svg xmlns="http://www.w3.org/2000/svg" xmlns:xlink="http://www.w3.org/1999/xlink" viewBox="0 0 24.94 10.48"><defs><style>.cls-1,.cls-3,.cls-4{fill:none;}.cls-2{clip-path:url(#clip-path);}.cls-3,.cls-4{stroke:#000;stroke-miterlimit:10;}.cls-3{stroke-width:0.57px;}.cls-4{stroke-width:0.15px;}</style><clipPath id="clip-path" transform="translate(0 -0.33)"><rect class="cls-1" x="2.24" width="18.35" height="10.83"/></clipPath></defs><title>hcs</title><g id="Layer_2" data-name="Layer 2"><g id="Layer_1-2" data-name="Layer 1"><g class="cls-2"><path class="cls-3" d="M1.69,6.16c7.24,0,9-2.43,12.59-2.43S18.89,6.92,22,6.92" transform="translate(0 -0.33)"/><path class="cls-3" d="M22.18,3.12c-9,0-8-2.5-13.33-2.5C5.72.62,4.41,2,1.61,2" transform="translate(0 -0.33)"/><path class="cls-3" d="M22.58,10.52c-9,0-8-2.5-13.33-2.5C6.12,8,4.81,9.44,2,9.44" transform="translate(0 -0.33)"/><path class="cls-4" d="M14.43,2.11C11.16,2.11,7,5.44,1.69,5.44" transform="translate(0 -0.33)"/><path class="cls-4" d="M13.56,1.5C8,1.48,6.17,4.83.82,4.83" transform="translate(0 -0.33)"/><path class="cls-4" d="M10.54.94C8.1.94,5.35,3.48,0,3.48" transform="translate(0 -0.33)"/><path class="cls-4" d="M16.12,4c-2.44,0-6.28,3-14.66,3" transform="translate(0 -0.33)"/><path class="cls-4" d="M18.37,5.24C12.69,4.67,8.8,8.06,1.69,8.06" transform="translate(0 -0.33)"/><path class="cls-4" d="M22.42,7.77c-4.39,0-3.62-2.74-14,0" transform="translate(0 -0.33)"/><path class="cls-4" d="M22.46,8.6c-4.39,0-5.89-1.78-11.34-.48" transform="translate(0 -0.33)"/><path class="cls-4" d="M22.37,9.37c-4.39,0-4.79-.49-7.78-.21" transform="translate(0 -0.33)"/><path class="cls-4" d="M22,4.48c-3.27,0-3.49-.35-6.62-2" transform="translate(0 -0.33)"/><path class="cls-4" d="M24.94,5.64a19,19,0,0,1-7.49-1.15" transform="translate(0 -0.33)"/></g></g></g></svg>