<svg xmlns="http://www.w3.org/2000/svg" xmlns:xlink="http://www.w3.org/1999/xlink" viewBox="0 0 26.53 9.22"><defs><style>.cls-1,.cls-3,.cls-4{fill:none;}.cls-2{clip-path:url(#clip-path);}.cls-3,.cls-4{stroke:#000;stroke-miterlimit:10;}.cls-3{stroke-width:0.2px;}.cls-4{stroke-width:0.57px;}</style><clipPath id="clip-path" transform="translate(0 -0.48)"><rect class="cls-1" x="4.58" width="18.56" height="9.83"/></clipPath></defs><title>tcs</title><g id="Layer_2" data-name="Layer 2"><g id="Layer_1-2" data-name="Layer 1"><g class="cls-2"><path class="cls-3" d="M7.64,6.75a9.08,9.08,0,0,0,5.24-3" transform="translate(0 -0.48)"/><path class="cls-3" d="M10.2,7.09" transform="translate(0 -0.48)"/><path class="cls-3" d="M4.93,6.38a12.21,12.21,0,0,0,6.33-2.94" transform="translate(0 -0.48)"/><path class="cls-3" d="M2.07,6.12A13.73,13.73,0,0,0,9,3.17" transform="translate(0 -0.48)"/><path class="cls-3" d="M22.22,5.67a12.63,12.63,0,0,1-6.5-2.94" transform="translate(0 -0.48)"/><path class="cls-3" d="M24.21,5.17a12.63,12.63,0,0,1-6.5-2.94" transform="translate(0 -0.48)"/><path class="cls-3" d="M26,4.65a12.63,12.63,0,0,1-6.5-2.94" transform="translate(0 -0.48)"/><path class="cls-3" d="M10.71,7a8,8,0,0,0,3.68-2.74" transform="translate(0 -0.48)"/><path class="cls-3" d="M13.48,6.9A8.79,8.79,0,0,0,16.35,5" transform="translate(0 -0.48)"/><path class="cls-3" d="M0,5.64A13.73,13.73,0,0,0,6.91,2.69" transform="translate(0 -0.48)"/><path class="cls-3" d="M14.72,8.86A5.54,5.54,0,0,0,18.4,6.13" transform="translate(0 -0.48)"/><path class="cls-3" d="M12.77,8.5a5,5,0,0,0,2.93-2" transform="translate(0 -0.48)"/><path class="cls-3" d="M17,8.89A5.4,5.4,0,0,0,20.43,6" transform="translate(0 -0.48)"/><path class="cls-3" d="M18.87,8.85A5.4,5.4,0,0,0,22.32,6" transform="translate(0 -0.48)"/><path class="cls-3" d="M21,8.87A5.4,5.4,0,0,0,24.44,6" transform="translate(0 -0.48)"/><path class="cls-3" d="M10.51,8.83C6,8.14,4.45,6.09,4.82,6.39" transform="translate(0 -0.48)"/><path class="cls-3" d="M9,9.21C3.11,8.38,1.05,5.92,1.53,6.28" transform="translate(0 -0.48)"/><path class="cls-4" d="M4,1.6c3.54,1.5,5.58,2,8.47,1.75A18.42,18.42,0,0,0,21.25.74" transform="translate(0 -0.48)"/><path class="cls-4" d="M12.45,3.35c2.25.93,8,4.15,13.84,1.36" transform="translate(0 -0.48)"/><path class="cls-4" d="M3.66,6C8.16,7.5,15.08,7.6,19,5.62" transform="translate(0 -0.48)"/><path class="cls-4" d="M26.46,8.45C23.77,9.12,13.15,9.57,8.63,7" transform="translate(0 -0.48)"/><path class="cls-4" d="M1.36,9.06s6.69,1.17,11.21-.73" transform="translate(0 -0.48)"/></g></g></g></svg>